<?xml version="1.0" encoding="UTF-8"?>
<svg version="1.1" xmlns="http://www.w3.org/2000/svg" width="500" height="500">
<path d="M0 0 C20.26363955 -0.35617538 39.90122675 0.05787369 60 3 C62.16784635 3.29387308 64.33581703 3.58683038 66.50390625 3.87890625 C107.2718454 9.55891326 150.58944391 21.58484065 186.625 42.0859375 C189.80272716 43.88812073 193.01652675 45.49018623 196.3125 47.0625 C202.52922381 50.14068363 208.54222378 53.70345276 214 58 C214 58.66 214 59.32 214 60 C215.07894531 60.33451172 215.07894531 60.33451172 216.1796875 60.67578125 C222.52216226 63.65375763 227.40111818 70.5076254 231.125 76.3125 C232.8969513 83.78000903 233.5635283 91.91879392 230 98.9375 C218.51468417 116.13374636 194.10733582 122.76625655 174.90185547 126.6640625 C113.24045919 138.06344368 48.17902608 129.45621456 -12.08508301 114.47595215 C-13.89283608 114.02663557 -15.70175491 113.5820168 -17.51074219 113.13769531 C-30.98943784 109.79299675 -44.20054965 105.74765457 -57.375 101.375 C-58.41772064 101.02989883 -58.41772064 101.02989883 -59.48150635 100.67782593 C-68.14574558 97.79716912 -76.60278932 94.59347848 -85 91 C-86.96323254 90.19786809 -88.92809223 89.3997075 -90.89453125 88.60546875 C-102.30692193 83.95805218 -113.27563559 79.0740919 -124 73 C-126.04028281 71.89327833 -128.08184465 70.78890957 -130.125 69.6875 C-133.46808991 67.8701505 -136.74677162 65.97393394 -140 64 C-139.67 63.01 -139.34 62.02 -139 61 C-137.79472656 61.52207031 -136.58945313 62.04414063 -135.34765625 62.58203125 C-111.24380896 72.8292372 -86.3286869 80.77939604 -60.95996094 87.23681641 C-58.12399856 87.96802874 -55.29977258 88.73288475 -52.4765625 89.51171875 C-35.49171912 94.15788547 -18.27611543 97.6365657 -1 101 C0.07282227 101.20898926 1.14564453 101.41797852 2.25097656 101.63330078 C25.44722536 106.07736923 49.35985461 109.58857919 73 110 C74.4228833 110.0306958 74.4228833 110.0306958 75.87451172 110.06201172 C90.37208218 110.33918126 104.61509399 109.86167747 119 108 C119.79519043 107.89816406 120.59038086 107.79632813 121.40966797 107.69140625 C138.46086835 105.41275543 156.48136518 101.59626587 167.9765625 87.67578125 C170.38105882 83.73864797 170.43539952 79.49912835 170 75 C167.40200343 67.66733677 162.18713419 58.59356709 155 55 C155 54.34 155 53.68 155 53 C153.9171875 52.62875 153.9171875 52.62875 152.8125 52.25 C150 51 150 51 147.89453125 49.28125 C135.9580087 39.87378823 122.10017141 33.28331227 108.01855469 27.79785156 C105.35703583 26.74586273 102.74518408 25.58800576 100.125 24.4375 C71.43695382 12.58030477 40.81284034 5.78910549 9.97583008 3.03833008 C8.24755981 2.87627075 8.24755981 2.87627075 6.484375 2.7109375 C5.45022461 2.62118652 4.41607422 2.53143555 3.35058594 2.43896484 C2.57489258 2.29410645 1.79919922 2.14924805 1 2 C0.67 1.34 0.34 0.68 0 0 Z " fill="#CF3B07" transform="translate(199,218)"/>
<path d="M0 0 C1.13888672 0.23944336 2.27777344 0.47888672 3.45117188 0.72558594 C17.0002354 3.64104651 30.25069371 7.46347544 43.5 11.5 C44.24741455 11.72747925 44.9948291 11.9549585 45.76489258 12.18933105 C59.69773754 16.44970523 73.56649902 20.96870384 86.96484375 26.71875 C89.21921598 27.67040263 91.4735039 28.58400688 93.75390625 29.46875 C100.10031427 31.93451664 106.22124087 34.46922844 112.109375 37.92578125 C114.30462706 39.17308356 116.59247068 40.10524438 118.92578125 41.0625 C126.90470599 44.66879367 134.77973474 49.044916 142 54 C142 54.66 142 55.32 142 56 C136.22754133 54.45162285 130.7141724 52.52640471 125.1875 50.25 C116.47101922 46.67521927 107.56056967 43.74304412 98.60058594 40.84375 C96.19123167 40.06204437 93.78674298 39.26694222 91.3828125 38.46875 C78.85059289 34.3561692 66.12644291 31.0681669 53.33984375 27.84814453 C50.24225136 27.0615191 47.15177588 26.2521687 44.0625 25.43359375 C-11.59958419 10.84036109 -98.8505715 -9.49550334 -152.8046875 20.5625 C-160.21070799 25.60906354 -160.21070799 25.60906354 -165 33 C-165.86374447 39.46804001 -165.30255855 44.7103669 -161.97265625 50.34375 C-161 52 -161 52 -160 55 C-159.34 55 -158.68 55 -158 55 C-156.31267723 56.98260426 -154.64633943 58.9832342 -153 61 C-152.34 61.33 -151.68 61.66 -151 62 C-151 62.66 -151 63.32 -151 64 C-149.9171875 64.37125 -149.9171875 64.37125 -148.8125 64.75 C-145.70007027 66.1333021 -143.63751723 67.84203136 -141 70 C-109.67638124 93.44039177 -66.93116915 104.4812639 -29 111 C-27.16656589 111.35364461 -25.33322437 111.70776973 -23.5 112.0625 C-18.24430881 113.01953026 -12.95954 113.67512507 -7.65625 114.30297852 C-3.74926464 114.76649437 0.12458464 115.32105126 4 116 C4 116.33 4 116.66 4 117 C-16.17235242 117.31063798 -36.09456259 117.60203788 -56.08447266 114.45751953 C-59.11890762 113.9813404 -62.15767848 113.54936614 -65.19921875 113.12109375 C-106.84886232 107.07648114 -150.14826274 94.0085202 -186.92236328 73.16162109 C-189.00032663 71.99981738 -191.10081128 70.89536392 -193.21484375 69.80078125 C-207.36621574 62.36692779 -221.10791326 52.61870601 -227.5 37.4375 C-228.60438326 29.84486509 -227.26645826 23.39968739 -223 17 C-209.07054572 -1.59991836 -178.67931057 -6.61916562 -157.4375 -10.25 C-155.29503137 -10.52736054 -153.14842432 -10.77334244 -151 -11 C-150.23123535 -11.08733398 -149.4624707 -11.17466797 -148.67041016 -11.26464844 C-98.6775116 -16.79974289 -48.93494088 -10.28831404 0 0 Z " fill="#D64714" transform="translate(291,180)"/>
<path d="M0 0 C0.52392334 0.21503174 1.04784668 0.43006348 1.58764648 0.65161133 C26.83536575 10.93911888 52.61959473 19.51168896 79.04003906 26.23681641 C81.87600144 26.96802874 84.70022742 27.73288475 87.5234375 28.51171875 C104.50828088 33.15788547 121.72388457 36.6365657 139 40 C140.07282227 40.20898926 141.14564453 40.41797852 142.25097656 40.63330078 C165.50262975 45.08798392 189.3180839 48.38964134 213 49 C213 49.33 213 49.66 213 50 C209.04900072 50.0246985 205.09803126 50.04285923 201.14697266 50.05493164 C199.14093449 50.06244036 197.13491798 50.0751447 195.12890625 50.08789062 C193.24365234 50.09272461 193.24365234 50.09272461 191.3203125 50.09765625 C190.15773926 50.10289307 188.99516602 50.10812988 187.79736328 50.11352539 C185 50 185 50 183 49 C181.36701169 48.84728754 179.72858566 48.75065262 178.08984375 48.68359375 C177.09919922 48.64169922 176.10855469 48.59980469 175.08789062 48.55664062 C174.04826172 48.51732422 173.00863281 48.47800781 171.9375 48.4375 C170.92494141 48.39431641 169.91238281 48.35113281 168.86914062 48.30664062 C156.41920022 47.17916371 156.41920022 47.17916371 145 51 C144.67 51.66 144.34 52.32 144 53 C141.69 53 139.38 53 137 53 C137 53.66 137 54.32 137 55 C118.42516144 51.8920858 100.4627977 46.31177981 82.625 40.375 C81.9320282 40.14547638 81.2390564 39.91595276 80.52508545 39.67947388 C71.85854503 36.79830675 63.3993899 33.59441105 55 30 C53.03676746 29.19786809 51.07190777 28.3997075 49.10546875 27.60546875 C37.69307807 22.95805218 26.72436441 18.0740919 16 12 C13.95971719 10.89327833 11.91815535 9.78890957 9.875 8.6875 C8.24474282 7.80126985 6.61940649 6.90590561 5 6 C4.07445312 5.51144531 3.14890625 5.02289063 2.1953125 4.51953125 C1.47085938 4.01808594 0.74640625 3.51664062 0 3 C0 2.01 0 1.02 0 0 Z " fill="#CE4615" transform="translate(59,279)"/>
<path d="M0 0 C3.71079406 0.61201248 6.77988917 1.6700187 10.18359375 3.2578125 C11.18205322 3.71518799 12.1805127 4.17256348 13.20922852 4.64379883 C14.8072229 5.37699341 14.8072229 5.37699341 16.4375 6.125 C40.51384136 16.91375382 66.03592581 23.53789267 92 28 C93.83343411 28.35364461 95.66677563 28.70776973 97.5 29.0625 C102.75569119 30.01953026 108.04046 30.67512507 113.34375 31.30297852 C117.25073536 31.76649437 121.12458464 32.32105126 125 33 C125 33.33 125 33.66 125 34 C104.82764758 34.31063798 84.90543741 34.60203788 64.91552734 31.45751953 C61.88109238 30.9813404 58.84232152 30.54936614 55.80078125 30.12109375 C27.42434527 26.00282171 -0.2637075 18.35062017 -27 8 C-27 7.34 -27 6.68 -27 6 C-18 8 -18 8 -9 10 C-9 10.66 -9 11.32 -9 12 C-5.7 12.66 -2.4 13.32 1 14 C0.67 12.35 0.34 10.7 0 9 C1.65 8.67 3.3 8.34 5 8 C5.33 6.68 5.66 5.36 6 4 C4.68 4 3.36 4 2 4 C2 3.34 2 2.68 2 2 C1.34 2 0.68 2 0 2 C0 1.34 0 0.68 0 0 Z " fill="#CE4314" transform="translate(170,263)"/>
<path d="M0 0 C6.47924152 1.32189551 12.59036877 3.08535916 18.8125 5.3125 C20.13060669 5.77934204 20.13060669 5.77934204 21.4753418 6.25561523 C27.07990707 8.25979084 32.60508065 10.39286416 38.0703125 12.75390625 C40.28494962 13.69586524 42.49943583 14.59480101 44.7421875 15.46484375 C51.09284476 17.93134794 57.21758018 20.46707948 63.109375 23.92578125 C65.30462706 25.17308356 67.59247068 26.10524438 69.92578125 27.0625 C77.90470599 30.66879367 85.77973474 35.044916 93 40 C93 40.66 93 41.32 93 42 C87.22754133 40.45162285 81.7141724 38.52640471 76.1875 36.25 C67.47101922 32.67521927 58.56056967 29.74304412 49.60058594 26.84375 C47.19123167 26.06204437 44.78674298 25.26694222 42.3828125 24.46875 C28.75977794 19.9982067 14.89794409 16.50100882 1 13 C-1.28391183 12.41949767 -3.56776698 11.83877227 -5.8515625 11.2578125 C-8.005056 10.71293925 -10.15869567 10.16864328 -12.3125 9.625 C-13.30209717 9.37427734 -14.29169434 9.12355469 -15.3112793 8.86523438 C-19.85783498 7.72750606 -24.35511628 6.66911223 -29 6 C-29 5.67 -29 5.34 -29 5 C-21.51459323 4.7462574 -14.34527088 5.50252662 -7 7 C-6.67 7.33 -6.34 7.66 -6 8 C-4.3603125 8.2165625 -4.3603125 8.2165625 -2.6875 8.4375 C1 9 1 9 2.94140625 10.01953125 C5.32840967 11.15641523 6.99426213 11.26759691 9.625 11.25 C10.78902344 11.25773438 10.78902344 11.25773438 11.9765625 11.265625 C14.22688411 11.17915354 14.22688411 11.17915354 16 9 C16 8.34 16 7.68 16 7 C14.68 7 13.36 7 12 7 C12 6.34 12 5.68 12 5 C10.700625 5.061875 10.700625 5.061875 9.375 5.125 C5.87641532 4.99542279 3.25448403 4.23980344 0 3 C0 2.01 0 1.02 0 0 Z " fill="#C44D28" transform="translate(340,194)"/>
<path d="M0 0 C20.26363955 -0.35617538 39.90122675 0.05787369 60 3 C62.16784635 3.29387308 64.33581703 3.58683038 66.50390625 3.87890625 C77.79460494 5.45470382 88.90516761 7.49632893 100 10.125 C101.07515869 10.37870361 102.15031738 10.63240723 103.25805664 10.89379883 C110.74245418 12.74245418 110.74245418 12.74245418 113 15 C110.36 15 107.72 15 105 15 C105 14.34 105 13.68 105 13 C101.7 13.33 98.4 13.66 95 14 C95 14.66 95 15.32 95 16 C94.34 16 93.68 16 93 16 C93.99 17.98 93.99 17.98 95 20 C90.79686991 21.83547541 87.20987344 19.91898692 83.1875 18.4375 C59.40521641 10.12605295 35.033723 5.27358684 9.97583008 3.03833008 C8.8236499 2.93029053 7.67146973 2.82225098 6.484375 2.7109375 C5.45022461 2.62118652 4.41607422 2.53143555 3.35058594 2.43896484 C2.57489258 2.29410645 1.79919922 2.14924805 1 2 C0.67 1.34 0.34 0.68 0 0 Z " fill="#CD5630" transform="translate(199,218)"/>
<path d="M0 0 C0 0.33 0 0.66 0 1 C-7.18998775 1.87766466 -14.23482716 2.10950342 -21.47265625 2.02734375 C-23.69596186 2.01467502 -25.91926925 2.00231578 -28.14257812 1.99023438 C-31.57728938 1.96572326 -35.01190184 1.9380001 -38.4465332 1.90405273 C-62.34878063 1.68349142 -85.57955247 3.03752791 -109 8 C-110.18078125 8.2475 -111.3615625 8.495 -112.578125 8.75 C-127.81723518 12.26058036 -147.16400243 18.72493974 -156.4375 32.1875 C-159.07307735 37.3109715 -159.01751602 43.59747829 -157.38671875 49.05078125 C-156.65984084 50.73191939 -155.83186721 52.36826047 -155 54 C-153.75 57.3125 -153.75 57.3125 -153 60 C-153.33 60.66 -153.66 61.32 -154 62 C-163.45074669 49.44112004 -163.45074669 49.44112004 -162.875 40.5625 C-161.64220811 32.31119975 -157.53529762 26.0904189 -151 21 C-131.81359202 8.41795858 -108.67873848 2.39259418 -86 0 C-85.23123535 -0.08733398 -84.4624707 -0.17466797 -83.67041016 -0.26464844 C-55.7849674 -3.35205813 -27.8920761 -2.39466163 0 0 Z " fill="#E08B6C" transform="translate(226,169)"/>
<path d="M0 0 C0.66 0.33 1.32 0.66 2 1 C3.35007394 1.17981957 4.70556104 1.32023367 6.0625 1.4375 C18.73104693 2.73104693 18.73104693 2.73104693 21 5 C22.51469448 5.23192865 24.03754562 5.41215238 25.5625 5.5625 C26.38878906 5.64628906 27.21507812 5.73007813 28.06640625 5.81640625 C28.70449219 5.87699219 29.34257812 5.93757812 30 6 C30.495 7.98 30.495 7.98 31 10 C32.299375 10.2165625 32.299375 10.2165625 33.625 10.4375 C35.875 10.8125 38.125 11.1875 40.375 11.5625 C41.674375 11.7790625 41.674375 11.7790625 43 12 C43 12.66 43 13.32 43 14 C44.32 13.67 45.64 13.34 47 13 C47.495 15.475 47.495 15.475 48 18 C45.22947819 18.92350727 43.43311242 19.16329585 40.5625 19.1875 C39.80066406 19.20167969 39.03882813 19.21585938 38.25390625 19.23046875 C35.74569527 18.97399657 34.21097684 18.17051715 32 17 C29.66842508 16.65458149 27.33491639 16.32205743 25 16 C24.11828125 15.68289062 23.2365625 15.36578125 22.328125 15.0390625 C18.27017205 13.77214292 14.34019693 13.3108085 10.125 12.875 C9.34125 12.78863281 8.5575 12.70226562 7.75 12.61328125 C5.83396841 12.4029851 3.9170634 12.20067256 2 12 C1.67 11.01 1.34 10.02 1 9 C1.33 8.34 1.66 7.68 2 7 C1.34 7 0.68 7 0 7 C0 6.34 0 5.68 0 5 C-0.99 4.67 -1.98 4.34 -3 4 C-2.67 3.01 -2.34 2.02 -2 1 C-1.34 0.67 -0.68 0.34 0 0 Z " fill="#D1400E" transform="translate(309,187)"/>
<path d="M0 0 C13.90309105 -0.4660254 27.18081008 1.98785754 40.77880859 4.53149414 C47.72874159 5.8153666 54.66625351 6.80962831 61.6875 7.60546875 C64.81317697 7.97774867 67.89999862 8.45655464 71 9 C71 9.33 71 9.66 71 10 C49.77477557 10.32685136 29.02176372 10.36226079 8 7 C5.64065278 6.63653838 3.28127671 6.27326396 0.921875 5.91015625 C-5.05846997 4.9774684 -11.03138352 4.00487704 -17 3 C-13.13748929 0.84844936 -10.66932153 0.93306785 -6.25 1.375 C-5.07953125 1.48585938 -3.9090625 1.59671875 -2.703125 1.7109375 C-1.81109375 1.80632812 -0.9190625 1.90171875 0 2 C0 1.34 0 0.68 0 0 Z " fill="#C74417" transform="translate(224,287)"/>
<path d="M0 0 C0 0.66 0 1.32 0 2 C1.12535156 1.94779297 1.12535156 1.94779297 2.2734375 1.89453125 C9.42743651 1.70531969 15.29135319 2.50652065 22 5 C22 5.33 22 5.66 22 6 C18.04 6 14.08 6 10 6 C10.33 6.99 10.66 7.98 11 9 C10.67 9.66 10.34 10.32 10 11 C10.99 11.33 11.98 11.66 13 12 C13 12.99 13 13.98 13 15 C13.99 15.33 14.98 15.66 16 16 C16 16.66 16 17.32 16 18 C16.5775 18.12375 17.155 18.2475 17.75 18.375 C20 19 20 19 21.9375 20.0625 C24.41940633 21.19063924 26.30402539 21.14977637 29 21 C29.495 23.475 29.495 23.475 30 26 C25.9182565 26 23.03646905 24.15390709 19.5 22.3125 C18.04887619 21.57284556 16.59705062 20.83456633 15.14453125 20.09765625 C14.43506348 19.73687988 13.7255957 19.37610352 12.99462891 19.00439453 C5.20011461 15.07947019 -2.75727403 11.8538645 -11 9 C-11.33 7.02 -11.66 5.04 -12 3 C-11.34 3 -10.68 3 -10 3 C-10 2.34 -10 1.68 -10 1 C-6.78548731 -0.60725635 -3.56387464 -0.05748185 0 0 Z M8 12 C7.67 12.66 7.34 13.32 7 14 C7.99 14 8.98 14 10 14 C10 13.34 10 12.68 10 12 C9.34 12 8.68 12 8 12 Z " fill="#CE4011" transform="translate(304,231)"/>
<path d="M0 0 C6.1582822 1.11968767 12.01631052 2.87657521 17.9375 4.875 C18.69538818 5.11943848 19.45327637 5.36387695 20.23413086 5.61572266 C25.71839551 7.51647331 25.71839551 7.51647331 27.21484375 10.0859375 C27.47394531 10.71757812 27.73304688 11.34921875 28 12 C30.16281282 13.1225649 30.16281282 13.1225649 32.625 13.75 C33.44226563 13.99234375 34.25953125 14.2346875 35.1015625 14.484375 C35.72804688 14.65453125 36.35453125 14.8246875 37 15 C37 15.99 37 16.98 37 18 C32.38926889 19.29676812 28.66159911 18.71109139 24 18 C24 17.34 24 16.68 24 16 C21.69 16 19.38 16 17 16 C17 15.34 17 14.68 17 14 C16.34 14.33 15.68 14.66 15 15 C6.7261957 15.00858724 -1.31557512 12.57965452 -9.25 10.5 C-11.71300014 9.86248749 -14.1765248 9.22699726 -16.640625 8.59375 C-17.71860352 8.31208984 -18.79658203 8.03042969 -19.90722656 7.74023438 C-22.92657204 7.01757448 -25.93241139 6.47193671 -29 6 C-29 5.67 -29 5.34 -29 5 C-21.51459323 4.7462574 -14.34527088 5.50252662 -7 7 C-6.67 7.33 -6.34 7.66 -6 8 C-4.3603125 8.2165625 -4.3603125 8.2165625 -2.6875 8.4375 C1 9 1 9 2.94140625 10.01953125 C5.32840967 11.15641523 6.99426213 11.26759691 9.625 11.25 C10.78902344 11.25773438 10.78902344 11.25773438 11.9765625 11.265625 C14.22688411 11.17915354 14.22688411 11.17915354 16 9 C16 8.34 16 7.68 16 7 C14.68 7 13.36 7 12 7 C12 6.34 12 5.68 12 5 C10.700625 5.061875 10.700625 5.061875 9.375 5.125 C5.87641532 4.99542279 3.25448403 4.23980344 0 3 C0 2.01 0 1.02 0 0 Z " fill="#C93D11" transform="translate(340,194)"/>
<path d="M0 0 C0.53439697 0.22026855 1.06879395 0.44053711 1.61938477 0.66748047 C18.80590561 7.6967693 36.29086129 13.4664388 54 19 C54 19.33 54 19.66 54 20 C49.62576092 20.16823996 46.83957582 20.05691562 43 18 C40.11785113 18.88214887 40.11785113 18.88214887 38 20 C47.17048926 24.61788954 47.17048926 24.61788954 57 24 C57.66 26.31 58.32 28.62 59 31 C52.83954998 29.03139397 46.83462836 26.8234536 40.875 24.3125 C40.05386719 23.96654785 39.23273438 23.6205957 38.38671875 23.26416016 C30.66445887 19.95226847 23.33236903 16.08953146 16 12 C13.95897289 10.89465158 11.91736388 9.7903765 9.875 8.6875 C8.24474282 7.80126985 6.61940649 6.90590561 5 6 C4.07445312 5.51144531 3.14890625 5.02289063 2.1953125 4.51953125 C1.47085938 4.01808594 0.74640625 3.51664062 0 3 C0 2.01 0 1.02 0 0 Z " fill="#C46543" transform="translate(59,279)"/>
<path d="M0 0 C0 0.99 0 1.98 0 3 C-1.24652344 3.32871094 -2.49304688 3.65742188 -3.77734375 3.99609375 C-12.68257905 6.44470363 -21.13565277 9.15417929 -29.3125 13.5 C-29.98595459 13.85505615 -30.65940918 14.2101123 -31.35327148 14.57592773 C-38.12698763 18.33344233 -45.53509576 23.29717426 -48 31 C-48.88562491 37.81327346 -48.09107718 42.93673322 -45 49 C-43.75 52.3125 -43.75 52.3125 -43 55 C-43.33 55.66 -43.66 56.32 -44 57 C-53.45074669 44.44112004 -53.45074669 44.44112004 -52.875 35.5625 C-51.64220811 27.31119975 -47.53529762 21.0904189 -41 16 C-29.43410356 8.41532922 -14.12093561 0 0 0 Z " fill="#E5B4A1" transform="translate(116,174)"/>
<path d="M0 0 C1.42892578 0.11794922 1.42892578 0.11794922 2.88671875 0.23828125 C5.3125 0.6875 5.3125 0.6875 7.3125 2.6875 C5.6625 2.6875 4.0125 2.6875 2.3125 2.6875 C5.6125 3.0175 8.9125 3.3475 12.3125 3.6875 C12.3125 4.3475 12.3125 5.0075 12.3125 5.6875 C15.6125 5.6875 18.9125 5.6875 22.3125 5.6875 C22.8075 6.6775 22.8075 6.6775 23.3125 7.6875 C22.9825 8.3475 22.6525 9.0075 22.3125 9.6875 C21.6525 9.6875 20.9925 9.6875 20.3125 9.6875 C19.9825 10.3475 19.6525 11.0075 19.3125 11.6875 C18.3225 11.3575 17.3325 11.0275 16.3125 10.6875 C16.6425 11.6775 16.9725 12.6675 17.3125 13.6875 C13.3525 13.6875 9.3925 13.6875 5.3125 13.6875 C5.3125 13.0275 5.3125 12.3675 5.3125 11.6875 C1.3525 10.0375 -2.6075 8.3875 -6.6875 6.6875 C-6.3575 5.6975 -6.0275 4.7075 -5.6875 3.6875 C-6.3475 3.3575 -7.0075 3.0275 -7.6875 2.6875 C-7.6875 3.6775 -7.6875 4.6675 -7.6875 5.6875 C-9.0075 5.6875 -10.3275 5.6875 -11.6875 5.6875 C-12.0175 4.6975 -12.3475 3.7075 -12.6875 2.6875 C-12.0275 2.6875 -11.3675 2.6875 -10.6875 2.6875 C-10.6875 2.0275 -10.6875 1.3675 -10.6875 0.6875 C-6.96764333 -0.21366746 -3.80715974 -0.34799414 0 0 Z " fill="#D1400C" transform="translate(147.6875,309.3125)"/>
<path d="M0 0 C-0.33 0.99 -0.66 1.98 -1 3 C-37.09137221 7.72560277 -72.85733511 6.62487116 -109 3 C-109 2.67 -109 2.34 -109 2 C-105.1263124 1.97480591 -101.25265815 1.95691325 -97.37890625 1.94506836 C-95.43227455 1.93771631 -93.48566544 1.92499422 -91.5390625 1.91210938 C-85.37532752 1.89638556 -79.28196465 2.00125764 -73.13671875 2.49609375 C-65.65184156 3.08992216 -58.20783306 3.1514597 -50.7043457 3.13037109 C-48.436293 3.12499714 -46.1684375 3.13036225 -43.90039062 3.13671875 C-30.91916673 3.14502237 -30.91916673 3.14502237 -18 2 C-17.67 1.67 -17.34 1.34 -17 1 C-14.51550143 0.76240332 -12.05267525 0.57775918 -9.5625 0.4375 C-8.86833984 0.39431641 -8.17417969 0.35113281 -7.45898438 0.30664062 C-2.43105159 0 -2.43105159 0 0 0 Z " fill="#BC5A41" transform="translate(367,343)"/>
<path d="M0 0 C4.19680368 1.9844781 8.73369484 2.96355854 13.23046875 4.0546875 C13.72546875 6.0346875 13.72546875 6.0346875 14.23046875 8.0546875 C8.62046875 8.0546875 3.01046875 8.0546875 -2.76953125 8.0546875 C-2.76953125 7.3946875 -2.76953125 6.7346875 -2.76953125 6.0546875 C-4.02765625 5.9721875 -5.28578125 5.8896875 -6.58203125 5.8046875 C-12.32795366 5.19166712 -17.43765432 3.1974044 -22.76953125 1.0546875 C-15.89942549 -6.14737715 -8.10115581 -4.43057224 0 0 Z " fill="#D13D0A" transform="translate(209.76953125,280.9453125)"/>
<path d="M0 0 C31.79005533 2.52924994 63.66272545 10.44121629 94 20 C94 20.33 94 20.66 94 21 C92.00045254 21.04254356 89.99958364 21.04080783 88 21 C87.67 20.67 87.34 20.34 87 20 C82.54379845 18.72679956 78.04992102 17.95555849 73.4375 17.5625 C69.79145831 17.20541344 66.79531834 16.23805931 63.39453125 14.83203125 C58.09460648 12.9904587 52.49504292 12.08820372 47 11 C47 10.34 47 9.68 47 9 C46.21753906 9.01160156 45.43507813 9.02320313 44.62890625 9.03515625 C43.61699219 9.04417969 42.60507812 9.05320313 41.5625 9.0625 C40.55316406 9.07410156 39.54382813 9.08570313 38.50390625 9.09765625 C36 9 36 9 35 8 C28.98579498 6.41601185 22.92378053 5.77157466 16.7421875 5.28125 C12.42652775 4.83861823 8.2334746 3.924718 4 3 C2.33387401 2.66397459 0.66734301 2.3299336 -1 2 C-0.67 1.34 -0.34 0.68 0 0 Z " fill="#CD7051" transform="translate(242,172)"/>
<path d="M0 0 C5.51006153 -0.25045734 5.51006153 -0.25045734 7.91796875 0.98046875 C10.86737361 2.42473642 13.63908203 2.38922689 16.87890625 2.55859375 C19 3 19 3 20.390625 4.4296875 C22.71340159 6.69608601 25.05505212 6.98017306 28.1875 7.6875 C29.27417969 7.93886719 30.36085938 8.19023437 31.48046875 8.44921875 C32.31191406 8.63097656 33.14335937 8.81273437 34 9 C34 10.32 34 11.64 34 13 C34.66 13 35.32 13 36 13 C35.67 13.99 35.34 14.98 35 16 C31.87709365 15.51421457 29.00419641 15.0013988 26 14 C24.33637583 13.65179959 22.67004829 13.31595508 21 13 C20.67 11.02 20.34 9.04 20 7 C19.0925 7.433125 18.185 7.86625 17.25 8.3125 C12.20692746 9.79636702 8.11148513 7.49836473 3.4765625 5.5546875 C1 4 1 4 0.1484375 1.8203125 C0.09945312 1.21960938 0.05046875 0.61890625 0 0 Z " fill="#D2410E" transform="translate(96,296)"/>
<path d="M0 0 C19.38053015 -0.34065291 38.21823531 -0.11858058 57.45019531 2.63623047 C60.9614923 3.13717192 64.47946955 3.56934129 68 4 C68 4.33 68 4.66 68 5 C65.04160645 5.02689449 62.08345573 5.04678741 59.125 5.0625 C57.86236328 5.07506836 57.86236328 5.07506836 56.57421875 5.08789062 C55.76855469 5.09111328 54.96289062 5.09433594 54.1328125 5.09765625 C53.01737061 5.10551147 53.01737061 5.10551147 51.87939453 5.11352539 C50 5 50 5 48 4 C45.95944995 3.92934383 43.91665743 3.91578024 41.875 3.9375 C40.77929688 3.94652344 39.68359375 3.95554688 38.5546875 3.96484375 C37.29011719 3.98224609 37.29011719 3.98224609 36 4 C36.495 4.99 36.495 4.99 37 6 C36.07703125 5.87882813 35.1540625 5.75765625 34.203125 5.6328125 C32.89859375 5.46523437 31.5940625 5.29765625 30.25 5.125 C29.54931396 5.03476563 28.84862793 4.94453125 28.12670898 4.8515625 C23.9292509 4.32453561 19.73316065 3.87019119 15.51953125 3.4921875 C14.61235352 3.40952637 13.70517578 3.32686523 12.77050781 3.24169922 C10.97758461 3.08167452 9.18393802 2.9295417 7.38964844 2.78564453 C5.25236388 2.59329734 3.12405665 2.3055586 1 2 C0.67 1.34 0.34 0.68 0 0 Z " fill="#CF856E" transform="translate(199,218)"/>
<path d="M0 0 C2 0 2 0 3.625 1.5 C5.89870996 5.63401812 5.59000132 9.67847307 4.4609375 14.12109375 C0.58286923 25.3930614 -9.49813292 30.45198825 -19.6875 35.4375 C-24.25124838 37.33204499 -29.05305178 38.25631856 -34 38 C-36.29296875 37.0078125 -36.29296875 37.0078125 -38 36 C-37.20078125 35.84144531 -36.4015625 35.68289063 -35.578125 35.51953125 C-22.20206624 32.67790374 -10.96284117 28.48505426 -1.5 18.3125 C1.76806593 13.2742317 1.49195069 7.89021032 0.5 2.0625 C0.2525 1.0415625 0.2525 1.0415625 0 0 Z " fill="#DC9B82" transform="translate(368,288)"/>
<path d="M0 0 C5.90458944 0.6108196 11.71808757 1.40851732 17.5625 2.4375 C24.87179994 3.6935463 32.18153067 4.70647582 39.546875 5.5703125 C42.71693625 5.96477713 45.85366127 6.44987329 49 7 C49 7.33 49 7.66 49 8 C43.73470396 8.02485795 38.46944265 8.04293442 33.20410156 8.05493164 C31.41568404 8.05993714 29.62727057 8.06674355 27.83886719 8.07543945 C25.25715126 8.08767166 22.67548979 8.09326628 20.09375 8.09765625 C19.30383667 8.10281754 18.51392334 8.10797882 17.70007324 8.11329651 C12.71248442 8.11379207 7.93797181 7.71069415 3 7 C3 6.67 3 6.34 3 6 C4.98 5.67 6.96 5.34 9 5 C8.67 4.34 8.34 3.68 8 3 C6.845 2.835 5.69 2.67 4.5 2.5 C3.345 2.335 2.19 2.17 1 2 C0.67 1.34 0.34 0.68 0 0 Z " fill="#B66149" transform="translate(246,289)"/>
<path d="M0 0 C-11.36728326 7.57818884 -30.07166709 5.13381424 -43.25 5.0625 C-44.88150903 5.05747149 -46.51301958 5.05291099 -48.14453125 5.04882812 C-52.0963923 5.03793757 -56.04817892 5.02074866 -60 5 C-60 4.34 -60 3.68 -60 3 C-58.89188965 2.9498877 -57.7837793 2.89977539 -56.64208984 2.84814453 C-52.46320702 2.65735017 -48.2847892 2.45759752 -44.10644531 2.25537109 C-42.31065885 2.16965873 -40.51476031 2.08625759 -38.71875 2.00537109 C-29.04396504 1.56806218 -19.57447633 1.02663453 -10.02978516 -0.69970703 C-6.52378746 -1.04719915 -3.45770678 -0.61522138 0 0 Z " fill="#D17554" transform="translate(333,326)"/>
<path d="M0 0 C2.58361518 -0.05407567 5.16609255 -0.093707 7.75 -0.125 C8.84441406 -0.15013672 8.84441406 -0.15013672 9.9609375 -0.17578125 C13.90905222 -0.2116732 16.59052612 0.0249083 20 2 C22.28883049 2.4123819 22.28883049 2.4123819 24.625 2.5625 C28.80555556 2.90277778 28.80555556 2.90277778 31 4 C30.67 4.66 30.34 5.32 30 6 C28.68 6 27.36 6 26 6 C26 6.66 26 7.32 26 8 C23.36 8 20.72 8 18 8 C18 7.34 18 6.68 18 6 C16.1128125 5.9690625 16.1128125 5.9690625 14.1875 5.9375 C13.47980469 5.92589844 12.77210938 5.91429687 12.04296875 5.90234375 C9.79694539 5.91736783 9.79694539 5.91736783 7 7 C4.95703125 6.22265625 4.95703125 6.22265625 2.8125 5.0625 C2.09707031 4.68222656 1.38164062 4.30195313 0.64453125 3.91015625 C0.10183594 3.60980469 -0.44085938 3.30945313 -1 3 C-0.67 2.01 -0.34 1.02 0 0 Z " fill="#D54D24" transform="translate(260,225)"/>
<path d="M0 0 C1.4245752 0.2019397 1.4245752 0.2019397 2.87792969 0.40795898 C11.07464975 1.5957794 19.19086703 3.06869207 27.3125 4.6875 C28.88064453 4.9659375 28.88064453 4.9659375 30.48046875 5.25 C31.39441406 5.415 32.30835938 5.58 33.25 5.75 C34.40822266 5.95302734 34.40822266 5.95302734 35.58984375 6.16015625 C36.15832031 6.33417969 36.72679687 6.50820312 37.3125 6.6875 C37.8075 7.6775 37.8075 7.6775 38.3125 8.6875 C35.08315924 8.25127951 31.85407388 7.81319116 28.625 7.375 C27.62766846 7.24037354 26.63033691 7.10574707 25.6027832 6.96704102 C20.74793101 6.30795759 15.897417 5.63395347 11.0546875 4.890625 C-2.48466721 2.82830465 -16.02690957 1.63447559 -29.6875 0.6875 C-29.6875 0.3575 -29.6875 0.0275 -29.6875 -0.3125 C-19.65320664 -1.82711032 -10.01998661 -1.47230614 0 0 Z " fill="#BE5A3A" transform="translate(255.6875,187.3125)"/>
<path d="M0 0 C7.49612516 1.52463563 14.71359134 3.68006154 22 6 C22 6.33 22 6.66 22 7 C17.62576092 7.16823996 14.83957582 7.05691562 11 5 C8.11785113 5.88214887 8.11785113 5.88214887 6 7 C15.17048926 11.61788954 15.17048926 11.61788954 25 11 C25.66 13.31 26.32 15.62 27 18 C20.48529224 15.94661139 14.21269971 13.50465317 7.9375 10.8125 C7.07189453 10.44447266 6.20628906 10.07644531 5.31445312 9.69726562 C3.20829117 8.80127408 1.10352808 7.90215345 -1 7 C-1 4.37886292 -0.68707555 2.49064888 0 0 Z " fill="#CB643E" transform="translate(91,292)"/>
<path d="M0 0 C0.6504277 -0.00263855 1.30085541 -0.0052771 1.97099304 -0.00799561 C4.10845595 -0.01184686 6.24540213 0.00090041 8.3828125 0.015625 C9.47346512 0.01828369 9.47346512 0.01828369 10.58615112 0.02099609 C25.61746058 0.06385732 40.53256753 0.97993209 55.5078125 2.265625 C55.5078125 2.595625 55.5078125 2.925625 55.5078125 3.265625 C48.43892472 4.11777279 41.4989293 4.39308955 34.3828125 4.328125 C33.42632812 4.32361328 32.46984375 4.31910156 31.484375 4.31445312 C29.15878492 4.30282517 26.8333349 4.28648602 24.5078125 4.265625 C24.5078125 3.935625 24.5078125 3.605625 24.5078125 3.265625 C13.2878125 2.935625 2.0678125 2.605625 -9.4921875 2.265625 C-5.89700698 -0.13116201 -4.27332493 0.00815409 0 0 Z " fill="#DB9B7C" transform="translate(170.4921875,166.734375)"/>
<path d="M0 0 C1.08410156 0.00257813 2.16820312 0.00515625 3.28515625 0.0078125 C4.90744141 0.00394531 4.90744141 0.00394531 6.5625 0 C9.34765625 0.1328125 9.34765625 0.1328125 11.34765625 1.1328125 C12.79418045 1.28348464 14.24644965 1.38142286 15.69921875 1.44921875 C16.97539062 1.51206055 16.97539062 1.51206055 18.27734375 1.57617188 C19.16679687 1.61548828 20.05625 1.65480469 20.97265625 1.6953125 C22.3184375 1.76008789 22.3184375 1.76008789 23.69140625 1.82617188 C25.90999908 1.93238111 28.12870505 2.03442444 30.34765625 2.1328125 C30.01765625 2.7928125 29.68765625 3.4528125 29.34765625 4.1328125 C25.84765625 4.6328125 25.84765625 4.6328125 22.34765625 5.1328125 C22.01765625 5.7928125 21.68765625 6.4528125 21.34765625 7.1328125 C23.82265625 7.6278125 23.82265625 7.6278125 26.34765625 8.1328125 C22.7953192 9.36190222 20.38557277 8.89377862 16.77734375 7.98828125 C15.71644531 7.72337891 14.65554687 7.45847656 13.5625 7.18554688 C12.46035156 6.90001953 11.35820312 6.61449219 10.22265625 6.3203125 C8.55783203 5.90942383 8.55783203 5.90942383 6.859375 5.49023438 C-1.38989477 3.39526148 -1.38989477 3.39526148 -3.65234375 1.1328125 C-2.65234375 0.1328125 -2.65234375 0.1328125 0 0 Z " fill="#C85431" transform="translate(237.65234375,220.8671875)"/>
<path d="M0 0 C7.73088253 0.6196075 15.32881905 1.81374471 22.97399902 3.09851074 C41.31898619 6.1679829 59.41166098 8.21689924 78 9 C78 9.33 78 9.66 78 10 C74.04900072 10.0246985 70.09803126 10.04285923 66.14697266 10.05493164 C64.14093449 10.06244036 62.13491798 10.0751447 60.12890625 10.08789062 C58.24365234 10.09272461 58.24365234 10.09272461 56.3203125 10.09765625 C54.57645264 10.10551147 54.57645264 10.10551147 52.79736328 10.11352539 C50 10 50 10 48 9 C45.16647271 8.65166348 42.34027082 8.3428199 39.5 8.0625 C33.65703238 7.45529641 27.96020535 6.70182618 22.21875 5.43359375 C19.01179953 4.80688336 15.79129066 4.56908093 12.5390625 4.28515625 C8.30438912 3.80956985 4.15937971 2.91152364 0 2 C0 1.34 0 0.68 0 0 Z " fill="#CF7F61" transform="translate(194,319)"/>
<path d="M0 0 C-0.54140625 0.67482422 -0.54140625 0.67482422 -1.09375 1.36328125 C-5.26241111 7.14150873 -5.9883471 11.97642696 -5 19 C-4.23047736 21.55208773 -3.22415254 23.5987777 -2 26 C-0.75 29.3125 -0.75 29.3125 0 32 C-0.33 32.66 -0.66 33.32 -1 34 C-10.48731246 21.39252863 -10.48731246 21.39252863 -9.8125 12.5 C-9.18277066 8.21637598 -8.09347106 4.79926229 -6 1 C-2.74074074 -1.37037037 -2.74074074 -1.37037037 0 0 Z " fill="#DA9D80" transform="translate(73,197)"/>
<path d="M0 0 C7.27569042 1.65554632 14.34271235 3.70425379 21.4375 6 C28.89646319 8.40975048 36.31410742 10.42694479 44 12 C44 12.33 44 12.66 44 13 C24.7260067 12.39703797 24.7260067 12.39703797 17 9 C16.17242187 8.68804687 15.34484375 8.37609375 14.4921875 8.0546875 C9.3590618 6.10869656 4.68777062 3.85342559 0 1 C0 0.67 0 0.34 0 0 Z " fill="#C86C4C" transform="translate(198,275)"/>
<path d="M0 0 C9.11973088 3.43470384 17.9718496 8.49048502 26 14 C26 14.66 26 15.32 26 16 C19.86649977 14.35477876 13.95615793 12.28582682 8.0625 9.9375 C7.4120874 9.6801709 6.7616748 9.4228418 6.09155273 9.15771484 C3.15616497 7.97128901 0.64621386 6.76414257 -2 5 C-0.02 5 1.96 5 4 5 C4 4.34 4 3.68 4 3 C2.68 3 1.36 3 0 3 C0 2.01 0 1.02 0 0 Z " fill="#C57761" transform="translate(407,220)"/>
<path d="M0 0 C5.18287122 4.89493393 9.61380395 9.70770674 10.2734375 17.0390625 C10.4946181 24.84843904 10.12604774 30.81986357 5 37 C4.01 37.66 3.02 38.32 2 39 C1.505 37.515 1.505 37.515 1 36 C1.61875 35.46375 2.2375 34.9275 2.875 34.375 C6.21736835 30.63941185 6.96224887 27.21181115 7.1171875 22.23828125 C7.03726562 20.94277344 6.95734375 19.64726562 6.875 18.3125 C6.81054688 17.00925781 6.74609375 15.70601563 6.6796875 14.36328125 C6.34380637 10.93020613 6.34380637 10.93020613 3.9453125 9.23046875 C3.30335938 8.82441406 2.66140625 8.41835938 2 8 C2 7.01 2 6.02 2 5 C1.34 5 0.68 5 0 5 C0 3.35 0 1.7 0 0 Z " fill="#A8381B" transform="translate(421,284)"/>
<path d="M0 0 C2.64 0.33 5.28 0.66 8 1 C8.66 2.65 9.32 4.3 10 6 C11.32 6 12.64 6 14 6 C14 6.66 14 7.32 14 8 C15.66279327 9.0064275 17.32983484 10.00585407 19 11 C21.56687367 14.8503105 20.83288724 16.58569763 20 21 C19.505 20.360625 19.01 19.72125 18.5 19.0625 C13.01947165 11.62702095 13.01947165 11.62702095 6 6 C6 5.34 6 4.68 6 4 C5.195625 3.71125 4.39125 3.4225 3.5625 3.125 C1 2 1 2 0 0 Z " fill="#C95933" transform="translate(348,267)"/>
<path d="M0 0 C5.89327336 1.26178397 11.7563533 1.7920504 17.7578125 2.2578125 C18.8096875 2.34417969 19.8615625 2.43054688 20.9453125 2.51953125 C23.50743923 2.7291598 26.06986673 2.93349364 28.6328125 3.1328125 C28.6328125 3.7928125 28.6328125 4.4528125 28.6328125 5.1328125 C31.6028125 5.1328125 34.5728125 5.1328125 37.6328125 5.1328125 C29.01675886 9.44083932 17.21943606 5.68216337 8.0078125 4.1953125 C6.40631348 3.94080322 6.40631348 3.94080322 4.77246094 3.68115234 C3.76473633 3.51180176 2.75701172 3.34245117 1.71875 3.16796875 C0.8117334 3.017229 -0.0952832 2.86648926 -1.02978516 2.71118164 C-3.3671875 2.1328125 -3.3671875 2.1328125 -6.3671875 0.1328125 C-3.77640249 -1.16258 -2.7921381 -0.65660772 0 0 Z " fill="#BA5231" transform="translate(223.3671875,337.8671875)"/>
<path d="M0 0 C2.39007705 0.90525965 4.67523623 1.93060866 7 3 C7 3.99 7 4.98 7 6 C2.38926889 7.29676812 -1.33840089 6.71109139 -6 6 C-6 5.34 -6 4.68 -6 4 C-6.99 3.67 -7.98 3.34 -9 3 C-8.67 2.01 -8.34 1.02 -8 0 C-5.0451585 -1.47742075 -3.19572794 -0.72356104 0 0 Z " fill="#D13E0D" transform="translate(370,206)"/>
<path d="M0 0 C7.48540677 -0.2537426 14.65472912 0.50252662 22 2 C22.33 2.33 22.66 2.66 23 3 C24.093125 3.12375 25.18625 3.2475 26.3125 3.375 C29.91099753 3.98491484 31.37548273 4.58544412 34 7 C30.47102106 8.21921501 28.14296132 7.76502962 24.5703125 6.8203125 C23.52746094 6.55089844 22.48460937 6.28148437 21.41015625 6.00390625 C19.78400391 5.56884766 19.78400391 5.56884766 18.125 5.125 C15.98231474 4.56302626 13.83909985 4.00306729 11.6953125 3.4453125 C10.74672363 3.19281738 9.79813477 2.94032227 8.82080078 2.68017578 C5.89472173 1.9746144 2.97360196 1.46072983 0 1 C0 0.67 0 0.34 0 0 Z " fill="#C25F44" transform="translate(311,199)"/>
<path d="M0 0 C-0.33 0.66 -0.66 1.32 -1 2 C-2.32 2 -3.64 2 -5 2 C-5 2.66 -5 3.32 -5 4 C-7.64 4 -10.28 4 -13 4 C-13 3.34 -13 2.68 -13 2 C-14.134375 1.87625 -15.26875 1.7525 -16.4375 1.625 C-17.613125 1.41875 -18.78875 1.2125 -20 1 C-20.33 0.34 -20.66 -0.32 -21 -1 C-14.54673807 -2.31998539 -6.01651444 -3.00825722 0 0 Z " fill="#D2400B" transform="translate(291,229)"/>
<path d="M0 0 C-0.33 0.99 -0.66 1.98 -1 3 C-21.53191489 5.38297872 -21.53191489 5.38297872 -31 5 C-31 4.34 -31 3.68 -31 3 C-30.07316406 2.93941406 -29.14632813 2.87882812 -28.19140625 2.81640625 C-26.99386719 2.73261719 -25.79632813 2.64882813 -24.5625 2.5625 C-22.77005859 2.44068359 -22.77005859 2.44068359 -20.94140625 2.31640625 C-18.11429756 2.32343886 -18.11429756 2.32343886 -17 1 C-14.51550143 0.76240332 -12.05267525 0.57775918 -9.5625 0.4375 C-8.86833984 0.39431641 -8.17417969 0.35113281 -7.45898438 0.30664062 C-2.43105159 0 -2.43105159 0 0 0 Z " fill="#B34B31" transform="translate(367,343)"/>
<path d="M0 0 C0 0.33 0 0.66 0 1 C-1.32837891 1.14695313 -1.32837891 1.14695313 -2.68359375 1.296875 C-12.66165084 2.50130229 -22.25932242 4.54624152 -32 7 C-32.82113281 7.20496094 -33.64226562 7.40992188 -34.48828125 7.62109375 C-34.98714844 7.74613281 -35.48601562 7.87117187 -36 8 C-36 7.01 -36 6.02 -36 5 C-23.98600073 0.59486693 -12.67659445 -0.31171954 0 0 Z " fill="#C56A51" transform="translate(183,188)"/>
<path d="M0 0 C19.77721519 3.46329114 19.77721519 3.46329114 28 8 C26.88625 7.979375 25.7725 7.95875 24.625 7.9375 C21.16784079 7.73619282 21.16784079 7.73619282 19 9 C16.99199544 8.71887936 14.98985949 8.38932033 13 8 C13 7.01 13 6.02 13 5 C12.39671875 4.95101563 11.7934375 4.90203125 11.171875 4.8515625 C9.97304687 4.73941406 9.97304687 4.73941406 8.75 4.625 C7.96109375 4.55539062 7.1721875 4.48578125 6.359375 4.4140625 C3.914123 3.98492887 2.15163097 3.21399362 0 2 C0 1.34 0 0.68 0 0 Z " fill="#CD6F49" transform="translate(117,300)"/>
<path d="M0 0 C0.33 0.66 0.66 1.32 1 2 C5.62 1.67 10.24 1.34 15 1 C15.33 1.99 15.66 2.98 16 4 C5.10238692 4.2071352 -5.27133239 4.15729044 -16 2 C-16 1.67 -16 1.34 -16 1 C-8.08 0.505 -8.08 0.505 0 0 Z " fill="#B54424" transform="translate(240,291)"/>
<path d="M0 0 C-0.33 0.99 -0.66 1.98 -1 3 C-8.59 4.32 -16.18 5.64 -24 7 C-23.67 5.68 -23.34 4.36 -23 3 C-20.10496617 2.49494737 -17.20912047 1.9957978 -14.3125 1.5 C-13.08756836 1.28537109 -13.08756836 1.28537109 -11.83789062 1.06640625 C-7.85021752 0.38834038 -4.06269596 -0.19858392 0 0 Z " fill="#DC9C83" transform="translate(140,170)"/>
<path d="M0 0 C-4.85845798 3.23897198 -9.77580905 3.1248771 -15.4921875 3.09765625 C-16.69101562 3.09443359 -17.88984375 3.09121094 -19.125 3.08789062 C-20.98125 3.07532227 -20.98125 3.07532227 -22.875 3.0625 C-24.13570313 3.05798828 -25.39640625 3.05347656 -26.6953125 3.04882812 C-29.79692386 3.0370796 -32.89843725 3.02065167 -36 3 C-36 2.67 -36 2.34 -36 2 C-35.40574219 1.94465088 -34.81148438 1.88930176 -34.19921875 1.83227539 C-31.46602411 1.57696823 -28.73301279 1.3197462 -26 1.0625 C-25.06542969 0.97548828 -24.13085938 0.88847656 -23.16796875 0.79882812 C-18.95410613 0.40101592 -14.75612431 -0.01848822 -10.5625 -0.59375 C-6.69634803 -1.03462698 -3.79754905 -0.71204045 0 0 Z " fill="#DFA28A" transform="translate(333,326)"/>
<path d="M0 0 C6.93 2.64 13.86 5.28 21 8 C21 8.33 21 8.66 21 9 C18.69 9 16.38 9 14 9 C14.33 9.66 14.66 10.32 15 11 C11.36485304 9.6310888 8.04411097 8.0167935 4.6875 6.0625 C3.80449219 5.55847656 2.92148437 5.05445313 2.01171875 4.53515625 C1.34785156 4.02855469 0.68398438 3.52195312 0 3 C0 2.01 0 1.02 0 0 Z " fill="#C97964" transform="translate(59,279)"/>
<path d="M0 0 C7.79280703 -0.45888243 14.15190624 1.18614372 21.5625 3.5 C22.66658203 3.83386719 23.77066406 4.16773438 24.90820312 4.51171875 C27.60904026 5.33015425 30.30588737 6.15974589 33 7 C33 7.33 33 7.66 33 8 C31.00045254 8.04254356 28.99958364 8.04080783 27 8 C26.67 7.67 26.34 7.34 26 7 C21.54379845 5.72679956 17.04992102 4.95555849 12.4375 4.5625 C7.9048846 4.13158234 4.19069208 2.75247123 0 1 C0 0.67 0 0.34 0 0 Z " fill="#CA6746" transform="translate(303,185)"/>
<path d="M0 0 C3.3 0.33 6.6 0.66 10 1 C10 1.66 10 2.32 10 3 C10.5775 3.12375 11.155 3.2475 11.75 3.375 C14 4 14 4 15.9375 5.0625 C18.41940633 6.19063924 20.30402539 6.14977637 23 6 C23.33 7.65 23.66 9.3 24 11 C19.80434328 11 16.76248242 9.01911247 13.125 7.125 C6.68382774 3.79913442 6.68382774 3.79913442 0 1 C0 0.67 0 0.34 0 0 Z " fill="#C25338" transform="translate(310,246)"/>
<path d="M0 0 C2.97 0.495 2.97 0.495 6 1 C6 1.99 6 2.98 6 4 C6.886875 4.268125 7.77375 4.53625 8.6875 4.8125 C11.80789038 5.93113051 14.33172267 7.03803137 17 9 C17 9.99 17 10.98 17 12 C17.99 12.33 18.98 12.66 20 13 C20 13.66 20 14.32 20 15 C15.1438982 13.44308186 11.66681658 10.64482991 7.75 7.5 C7.11320312 7.00113281 6.47640625 6.50226563 5.8203125 5.98828125 C1.13494819 2.26989638 1.13494819 2.26989638 0 0 Z " fill="#CD795D" transform="translate(73,231)"/>
<path d="M0 0 C0 0.66 0 1.32 0 2 C2.97 2.495 2.97 2.495 6 3 C6 3.33 6 3.66 6 4 C-2.0338497 5.52366115 -9.19772292 4.43285288 -17 2 C-17.33 1.34 -17.66 0.68 -18 0 C-16.86111328 0.01740234 -16.86111328 0.01740234 -15.69921875 0.03515625 C-14.70535156 0.04417969 -13.71148437 0.05320313 -12.6875 0.0625 C-11.70136719 0.07410156 -10.71523438 0.08570313 -9.69921875 0.09765625 C-0.73084677 -0.22681452 -0.73084677 -0.22681452 0 0 Z " fill="#C94418" transform="translate(311,194)"/>
<path d="M0 0 C9.9246265 0.43720822 19.3722704 2.72281423 29 5 C29 5.33 29 5.66 29 6 C26.24915453 5.88588196 23.49988053 5.75914051 20.75 5.625 C19.97269531 5.5940625 19.19539063 5.563125 18.39453125 5.53125 C14.38445069 5.32560484 11.53683065 5.02104609 8 3 C5.64435404 2.55188863 5.64435404 2.55188863 3.25 2.375 C2.45078125 2.30023438 1.6515625 2.22546875 0.828125 2.1484375 C0.22484375 2.09945312 -0.3784375 2.05046875 -1 2 C-0.67 1.34 -0.34 0.68 0 0 Z " fill="#CE7555" transform="translate(268,223)"/>
<path d="M0 0 C1.06831055 0.00966797 1.06831055 0.00966797 2.15820312 0.01953125 C7.62040522 0.09862196 13.02091409 0.45834421 18.4375 1.1875 C18.4375 1.5175 18.4375 1.8475 18.4375 2.1875 C13.55301686 2.98059907 8.90199764 3.32275723 3.9375 3.3125 C2.06578125 3.31636719 2.06578125 3.31636719 0.15625 3.3203125 C-3.5154207 3.1891814 -6.94246907 2.77528853 -10.5625 2.1875 C-6.91221205 -0.2460253 -4.21326719 -0.07780734 0 0 Z " fill="#CD5326" transform="translate(223.5625,169.8125)"/>
<path d="M0 0 C2 0 2 0 3.625 1.5 C5.92928082 5.68960149 5.59823093 9.77964291 4.390625 14.26171875 C2.45070806 19.77464597 2.45070806 19.77464597 0 21 C0.08378906 19.90300781 0.16757812 18.80601562 0.25390625 17.67578125 C0.35712189 16.22137904 0.45996694 14.76695049 0.5625 13.3125 C0.61857422 12.59126953 0.67464844 11.87003906 0.73242188 11.12695312 C0.99955159 7.22685936 1.00887596 3.78888972 0 0 Z " fill="#DE8F75" transform="translate(368,288)"/>
<path d="M0 0 C9.00726401 1.63768437 17.42639358 4.86979697 26 8 C22.8035914 9.06546953 20.34252724 9.07427838 17 9 C16.67 8.34 16.34 7.68 16 7 C14.68 7 13.36 7 12 7 C12 6.34 12 5.68 12 5 C10.700625 5.061875 10.700625 5.061875 9.375 5.125 C5.87641532 4.99542279 3.25448403 4.23980344 0 3 C0 2.01 0 1.02 0 0 Z " fill="#C76D4B" transform="translate(340,194)"/>
<path d="M0 0 C9.56700056 0.61722584 18.69247957 2.8201341 28 5 C28 5.33 28 5.66 28 6 C21.06697907 6.22731216 14.7831364 5.42002108 8 4 C8 3.34 8 2.68 8 2 C5.69 2 3.38 2 1 2 C0.67 1.34 0.34 0.68 0 0 Z " fill="#CE7557" transform="translate(281,179)"/>
<path d="M0 0 C0.33 0 0.66 0 1 0 C1.09796875 0.70125 1.1959375 1.4025 1.296875 2.125 C2.05594654 6.94117803 2.83476292 11.13093282 5.1875 15.4375 C7 19 7 19 6.61328125 21.22265625 C6.41089844 21.80917969 6.20851563 22.39570313 6 23 C2.21014053 18.81319764 -0.84853015 15.22562954 -1.2421875 9.44140625 C-0.96964194 6.25122557 -0.58692439 3.14670387 0 0 Z " fill="#D96942" transform="translate(66,208)"/>
<path d="M0 0 C-1.423125 0.12375 -1.423125 0.12375 -2.875 0.25 C-6.10461791 0.65074923 -6.10461791 0.65074923 -7.375 3.0625 C-7.58125 3.701875 -7.7875 4.34125 -8 5 C-8.99 5 -9.98 5 -11 5 C-11.33 5.99 -11.66 6.98 -12 8 C-12.99 8.33 -13.98 8.66 -15 9 C-15 8.34 -15 7.68 -15 7 C-16.98 7.99 -16.98 7.99 -19 9 C-19.66 8.34 -20.32 7.68 -21 7 C-18.25643874 5.63121452 -15.50644895 4.27986823 -12.75 2.9375 C-11.97269531 2.54755859 -11.19539063 2.15761719 -10.39453125 1.75585938 C-9.26337891 1.20961914 -9.26337891 1.20961914 -8.109375 0.65234375 C-7.41811523 0.31195068 -6.72685547 -0.02844238 -6.01464844 -0.37915039 C-3.62242947 -1.11635505 -2.33429153 -0.80784795 0 0 Z " fill="#D75829" transform="translate(103,182)"/>
<path d="M0 0 C5.50918197 -0.25041736 5.50918197 -0.25041736 7.9140625 0.9765625 C10.88742811 2.4354048 13.71077799 2.43925435 16.9765625 2.65625 C19 3 19 3 21 5 C11.58997722 5.18451025 11.58997722 5.18451025 7 4 C7 4.66 7 5.32 7 6 C4.0625 5.25 4.0625 5.25 1 4 C0.125 1.875 0.125 1.875 0 0 Z " fill="#CA481A" transform="translate(96,296)"/>
<path d="M0 0 C5.3503559 0.57021934 10.67787852 1.20734361 16 2 C15.34 3.32 14.68 4.64 14 6 C16.31 6.33 18.62 6.66 21 7 C21 7.33 21 7.66 21 8 C14.8894576 8.11269443 9.04829486 7.89604368 3 7 C3 6.67 3 6.34 3 6 C4.98 5.67 6.96 5.34 9 5 C8.67 4.34 8.34 3.68 8 3 C6.845 2.835 5.69 2.67 4.5 2.5 C3.345 2.335 2.19 2.17 1 2 C0.67 1.34 0.34 0.68 0 0 Z " fill="#D07654" transform="translate(246,289)"/>
<path d="M0 0 C3.40312738 1.05875074 6.01353231 2.00902154 9 4 C9 4.99 9 5.98 9 7 C10.32 7 11.64 7 13 7 C13 7.66 13 8.32 13 9 C7.78020872 9.1799928 3.92737019 8.97094808 -1 7 C-1 6.67 -1 6.34 -1 6 C1.31 6 3.62 6 6 6 C6 5.34 6 4.68 6 4 C3.36 3.34 0.72 2.68 -2 2 C-1.34 1.34 -0.68 0.68 0 0 Z " fill="#C25636" transform="translate(398,216)"/>
<path d="M0 0 C-3.50417877 1.9312307 -7.1073923 3.05522696 -10.9375 4.1875 C-12.14277344 4.55230469 -13.34804688 4.91710937 -14.58984375 5.29296875 C-17.90198939 5.97967936 -19.7996123 5.95343618 -23 5 C-23 4.67 -23 4.34 -23 4 C-21.865625 3.690625 -20.73125 3.38125 -19.5625 3.0625 C-16.21224901 2.37075469 -16.21224901 2.37075469 -15 1 C-9.93755771 0.21444861 -5.11652669 -0.10659431 0 0 Z " fill="#B64827" transform="translate(398,337)"/>
<path d="M0 0 C0.99 0.33 1.98 0.66 3 1 C2.319375 1.61875 2.319375 1.61875 1.625 2.25 C-2.02883167 6.18489564 -2.19105275 9.33522699 -2 14.625 C-1.875 18.1015625 -1.875 18.1015625 -2 21 C-2.66 21.66 -3.32 22.32 -4 23 C-5.26447458 17.31500453 -6.49791431 10.50648122 -4.140625 4.98828125 C-2.92240305 3.16536218 -1.5513041 1.5513041 0 0 Z " fill="#B25135" transform="translate(128,205)"/>
<path d="M0 0 C8.8185032 0.41855416 17.56663353 1.22865787 26 4 C26.33 4.66 26.66 5.32 27 6 C23.4371478 5.52342873 19.87478575 5.04328558 16.3125 4.5625 C15.30509766 4.42779297 14.29769531 4.29308594 13.25976562 4.15429688 C12.28330078 4.02216797 11.30683594 3.89003906 10.30078125 3.75390625 C9.40528564 3.63345947 8.50979004 3.5130127 7.5871582 3.38891602 C5.03744067 3.00562829 2.52356549 2.5269857 0 2 C0 1.34 0 0.68 0 0 Z " fill="#BF6650" transform="translate(267,190)"/>
<path d="M0 0 C4.2834384 4.0454696 7.92982087 8.00349845 9.9375 13.625 C10.01806108 16.68632116 9.03962107 17.79720925 7 20 C6.97421875 19.38511719 6.9484375 18.77023437 6.921875 18.13671875 C6.7663953 13.04764174 6.7663953 13.04764174 3.9375 9.125 C3.298125 8.75375 2.65875 8.3825 2 8 C2 7.01 2 6.02 2 5 C1.34 5 0.68 5 0 5 C0 3.35 0 1.7 0 0 Z " fill="#C66746" transform="translate(421,284)"/>
<path d="M0 0 C5.46737191 1.74807129 10.75824848 3.65794081 16 6 C16 6.33 16 6.66 16 7 C9.375 8.125 9.375 8.125 6 7 C6 6.34 6 5.68 6 5 C5.01 5.33 4.02 5.66 3 6 C3 5.34 3 4.68 3 4 C2.34 4 1.68 4 1 4 C0.67 2.68 0.34 1.36 0 0 Z " fill="#CA5833" transform="translate(182,268)"/>
<path d="M0 0 C1.99609375 0.05078125 1.99609375 0.05078125 4.4375 0.3125 C5.64212891 0.43044922 5.64212891 0.43044922 6.87109375 0.55078125 C9 1 9 1 11 3 C9.0625 3.5625 9.0625 3.5625 7 4 C6.67 3.67 6.34 3.34 6 3 C3.30345146 2.92680379 0.63308542 2.90757463 -2.0625 2.9375 C-3.20041992 2.94426758 -3.20041992 2.94426758 -4.36132812 2.95117188 C-6.24091871 2.9629932 -8.12046899 2.98092922 -10 3 C-10 2.34 -10 1.68 -10 1 C-9.36191406 1.01160156 -8.72382813 1.02320313 -8.06640625 1.03515625 C-7.24011719 1.04417969 -6.41382813 1.05320312 -5.5625 1.0625 C-4.32693359 1.07990234 -4.32693359 1.07990234 -3.06640625 1.09765625 C-1.00836062 1.23267348 -1.00836062 1.23267348 0 0 Z " fill="#C83B0C" transform="translate(234,289)"/>
<path d="M0 0 C1.60488281 -0.03867188 1.60488281 -0.03867188 3.2421875 -0.078125 C6.125 0.25 6.125 0.25 8.0078125 1.765625 C8.37648437 2.25546875 8.74515625 2.7453125 9.125 3.25 C5.8774538 4.3325154 3.94239096 4.23903488 0.5625 3.9375 C-0.40816406 3.85886719 -1.37882813 3.78023437 -2.37890625 3.69921875 C-4.875 3.25 -4.875 3.25 -6.875 1.25 C-5.07228218 -0.55271782 -2.43091251 0.03497716 0 0 Z " fill="#C54219" transform="translate(240.875,220.75)"/>
<path d="M0 0 C0.33 0.99 0.66 1.98 1 3 C0.33333333 4.33333333 -0.33333333 5.66666667 -1 7 C-1 7.86625 -1 8.7325 -1 9.625 C-1 10.40875 -1 11.1925 -1 12 C-1.66 12.66 -2.32 13.32 -3 14 C-3.64767793 16.57061311 -3.64767793 16.57061311 -4 19 C-4.33 19 -4.66 19 -5 19 C-5.64897681 11.15459142 -4.98643115 6.21523025 0 0 Z " fill="#D55326" transform="translate(72,197)"/>
<path d="M0 0 C-0.99 0.33 -1.98 0.66 -3 1 C-3 1.66 -3 2.32 -3 3 C-4.74906659 3.19601608 -6.49931846 3.38147403 -8.25 3.5625 C-9.22453125 3.66691406 -10.1990625 3.77132812 -11.203125 3.87890625 C-13.7631352 3.98974468 -15.58148159 3.77738092 -18 3 C-4.75961538 -1.58653846 -4.75961538 -1.58653846 0 0 Z " fill="#D65B2E" transform="translate(121,177)"/>
<path d="M0 0 C5.2584002 0.67415387 10.02638346 2.24265549 15 4 C12 6 12 6 10 6 C9.67 6.66 9.34 7.32 9 8 C8.62875 7.38125 8.2575 6.7625 7.875 6.125 C5.51377094 3.4489404 3.39868348 2.9063156 0 2 C0 1.34 0 0.68 0 0 Z " fill="#CA5932" transform="translate(329,238)"/>
<path d="M0 0 C0 0.99 0 1.98 0 3 C-2.12209776 3.69640673 -4.24778527 4.38188357 -6.375 5.0625 C-8.15003906 5.63677734 -8.15003906 5.63677734 -9.9609375 6.22265625 C-13 7 -13 7 -15 6 C-14.67 5.01 -14.34 4.02 -14 3 C-11.34765625 2.05078125 -11.34765625 2.05078125 -8.0625 1.3125 C-6.98097656 1.06113281 -5.89945313 0.80976563 -4.78515625 0.55078125 C-2 0 -2 0 0 0 Z " fill="#E5AB92" transform="translate(116,174)"/>
<path d="M0 0 C3.63 0.33 7.26 0.66 11 1 C11 1.99 11 2.98 11 4 C11.66 4.33 12.32 4.66 13 5 C11.35 5.66 9.7 6.32 8 7 C7.67 6.01 7.34 5.02 7 4 C5.12612784 3.19787372 5.12612784 3.19787372 2.9375 2.8125 C2.20402344 2.65394531 1.47054687 2.49539063 0.71484375 2.33203125 C0.14894531 2.22246094 -0.41695313 2.11289062 -1 2 C-0.67 1.34 -0.34 0.68 0 0 Z " fill="#C84B22" transform="translate(80,290)"/>
<path d="M0 0 C7.08076251 -0.40850553 13.19925959 1.09579269 20 3 C20 3.66 20 4.32 20 5 C13.04339229 4.42978625 6.68572695 2.98697306 0 1 C0 0.67 0 0.34 0 0 Z " fill="#BD6349" transform="translate(187,284)"/>
<path d="M0 0 C9 2 9 2 18 4 C17.67 4.66 17.34 5.32 17 6 C13.01754349 7.3274855 10.55210457 5.99907829 6.8125 4.5625 C6.15830078 4.31951172 5.50410156 4.07652344 4.83007812 3.82617188 C3.21696714 3.2256707 1.6080565 2.61390797 0 2 C0 1.34 0 0.68 0 0 Z " fill="#C35D42" transform="translate(143,269)"/>
<path d="M0 0 C10.55808656 3.07517084 10.55808656 3.07517084 15 5 C10.84301902 6.23169807 7.45243791 6.39611943 3.25 5.25 C1 4 1 4 0.359375 1.921875 C0.24078125 1.28765625 0.1221875 0.6534375 0 0 Z " fill="#C66640" transform="translate(354,247)"/>
<path d="M0 0 C0.66 2.31 1.32 4.62 2 7 C0.53775201 6.57576756 -0.91973412 6.13509755 -2.375 5.6875 C-3.18710938 5.44386719 -3.99921875 5.20023437 -4.8359375 4.94921875 C-7 4 -7 4 -9 1 C-5.94152152 0.45627049 -3.11227195 0 0 0 Z " fill="#C4542F" transform="translate(116,303)"/>
<path d="M0 0 C2.06326977 0.08760589 4.1256716 0.19579273 6.1875 0.3125 C7.91033203 0.39951172 7.91033203 0.39951172 9.66796875 0.48828125 C13.14680104 1.02254506 15.14531638 1.9947326 18 4 C14.69130545 5.08506842 12.4384779 4.88446498 9.0625 4.125 C7.81146484 3.85042969 7.81146484 3.85042969 6.53515625 3.5703125 C5.69855469 3.38210937 4.86195313 3.19390625 4 3 C2.33413792 2.6626687 0.66769137 2.32816825 -1 2 C-0.67 1.34 -0.34 0.68 0 0 Z " fill="#CC6843" transform="translate(242,172)"/>
<path d="M0 0 C4.62 0 9.24 0 14 0 C13.67 1.32 13.34 2.64 13 4 C11.20793453 3.85915204 9.41635083 3.71216299 7.625 3.5625 C6.62726563 3.48128906 5.62953125 3.40007812 4.6015625 3.31640625 C2 3 2 3 0 2 C0 1.34 0 0.68 0 0 Z " fill="#BD4B26" transform="translate(157,322)"/>
<path d="M0 0 C0.96292969 0.19078125 1.92585937 0.3815625 2.91796875 0.578125 C3.81128906 0.75859375 4.70460937 0.9390625 5.625 1.125 C7.62407671 1.46382656 9.62355726 1.80044172 11.625 2.125 C11.625 2.455 11.625 2.785 11.625 3.125 C-2.44685629 3.39446108 -2.44685629 3.39446108 -8.375 2.125 C-8.705 1.465 -9.035 0.805 -9.375 0.125 C-5.95003513 -1.01665496 -3.5103123 -0.71779495 0 0 Z " fill="#D06E4C" transform="translate(158.375,310.875)"/>
<path d="M0 0 C6.69007182 0.52405563 13.3487487 1.10463925 20 2 C20 2.33 20 2.66 20 3 C17.04160645 3.02689449 14.08345573 3.04678741 11.125 3.0625 C9.86236328 3.07506836 9.86236328 3.07506836 8.57421875 3.08789062 C7.76855469 3.09111328 6.96289062 3.09433594 6.1328125 3.09765625 C5.01737061 3.10551147 5.01737061 3.10551147 3.87939453 3.11352539 C2 3 2 3 0 2 C0 1.34 0 0.68 0 0 Z " fill="#CD7458" transform="translate(247,220)"/>
<path d="M0 0 C3.59007126 1.33345504 6.79570907 2.8943231 10 5 C10 5.33 10 5.66 10 6 C6.7 6.33 3.4 6.66 0 7 C-1.33332095 4.3333581 -0.67102033 2.83319697 0 0 Z " fill="#CE5F38" transform="translate(160,257)"/>
<path d="M0 0 C10.55808656 0.59453303 10.55808656 0.59453303 15 4 C11.23331402 5.3805087 8.55210827 4.59568159 4.75 3.5625 C3.13351563 3.13130859 3.13351563 3.13130859 1.484375 2.69140625 C0.25460938 2.34916016 0.25460938 2.34916016 -1 2 C-0.67 1.34 -0.34 0.68 0 0 Z " fill="#BA5031" transform="translate(200,333)"/>
<path d="M0 0 C2 1 4 2 6 3 C6 4.65 6 6.3 6 8 C3.03 7.505 3.03 7.505 0 7 C-0.38133299 5.0085944 -0.71325582 3.00720923 -1 1 C-0.67 0.67 -0.34 0.34 0 0 Z " fill="#D64E23" transform="translate(73,224)"/>
<path d="M0 0 C0 0.33 0 0.66 0 1 C-5.94 1.495 -5.94 1.495 -12 2 C-11.67 2.66 -11.34 3.32 -11 4 C-12.258125 3.87625 -13.51625 3.7525 -14.8125 3.625 C-15.87404297 3.52058594 -15.87404297 3.52058594 -16.95703125 3.4140625 C-19 3 -19 3 -22 1 C-14.66236293 -0.17402193 -7.41834582 -0.09377123 0 0 Z " fill="#C06043" transform="translate(247,220)"/>
<path d="M0 0 C-0.33 0.66 -0.66 1.32 -1 2 C-5.19469571 1.40075776 -9.00999834 0.42500059 -13 -1 C-13 -1.33 -13 -1.66 -13 -2 C-7.60776837 -3.07844633 -4.82361952 -2.49497561 0 0 Z " fill="#C05130" transform="translate(180,280)"/>
<path d="M0 0 C-3.52679099 2.35119399 -5.02879485 2.21443452 -9.1875 2.125 C-10.27417969 2.10695313 -11.36085938 2.08890625 -12.48046875 2.0703125 C-13.72763672 2.03550781 -13.72763672 2.03550781 -15 2 C-15 1.34 -15 0.68 -15 0 C-9.62374766 -0.84888195 -5.34629602 -1.0024305 0 0 Z " fill="#D59278" transform="translate(333,326)"/>
<path d="M0 0 C1.43838552 0.79005662 2.87567415 1.58211045 4.3125 2.375 C5.11300781 2.81585938 5.91351563 3.25671875 6.73828125 3.7109375 C8.53527943 4.73513335 10.27900708 5.85267138 12 7 C12 7.66 12 8.32 12 9 C8.4257023 8.67506385 6.44287547 8.36129314 3.625 6.0625 C2 4 2 4 2 2 C1.34 2 0.68 2 0 2 C0 1.34 0 0.68 0 0 Z " fill="#C96F4E" transform="translate(401,269)"/>
<path d="M0 0 C0.97582031 0.10183594 1.95164062 0.20367187 2.95703125 0.30859375 C3.69308594 0.39238281 4.42914063 0.47617188 5.1875 0.5625 C5.1875 1.2225 5.1875 1.8825 5.1875 2.5625 C-0.27019811 2.67388159 -5.42759359 2.47907981 -10.8125 1.5625 C-10.8125 1.2325 -10.8125 0.9025 -10.8125 0.5625 C-7.01982808 -0.3735342 -3.87575435 -0.42026252 0 0 Z " fill="#C25F43" transform="translate(261.8125,188.4375)"/>
<path d="M0 0 C1.45922693 0.11409593 2.91740598 0.24165544 4.375 0.375 C5.59316406 0.47941406 5.59316406 0.47941406 6.8359375 0.5859375 C9 1 9 1 11 3 C13.57061311 3.64767793 13.57061311 3.64767793 16 4 C15.34 4.66 14.68 5.32 14 6 C9.01662989 5.69797757 4.45612062 3.08728962 0 1 C0 0.67 0 0.34 0 0 Z " fill="#C86C4A" transform="translate(117,259)"/>
<path d="M0 0 C2.475 0.99 2.475 0.99 5 2 C5 2.99 5 3.98 5 5 C5.99 5.33 6.98 5.66 8 6 C8 6.66 8 7.32 8 8 C4.54074837 6.7508258 1.85306797 5.32472205 -1 3 C-0.67 2.01 -0.34 1.02 0 0 Z " fill="#CF774E" transform="translate(85,238)"/>
<path d="M0 0 C0.33 0.66 0.66 1.32 1 2 C3.32156597 2.40729228 5.6568787 2.74438677 8 3 C8 3.33 8 3.66 8 4 C4.37 4.33 0.74 4.66 -3 5 C-3 4.34 -3 3.68 -3 3 C-4.32 2.34 -5.64 1.68 -7 1 C-4 0 -4 0 0 0 Z " fill="#CB532D" transform="translate(246,288)"/>
<path d="M0 0 C3.01217112 0.64449607 5.51655836 1.65022182 8.25 3.0625 C8.95640625 3.42472656 9.6628125 3.78695313 10.390625 4.16015625 C10.92171875 4.43730469 11.4528125 4.71445312 12 5 C8.69564916 6.12377697 6.9493138 5.89554742 3.75 4.5625 C3.04359375 4.27503906 2.3371875 3.98757813 1.609375 3.69140625 C1.07828125 3.46324219 0.5471875 3.23507812 0 3 C0 2.01 0 1.02 0 0 Z " fill="#C4603F" transform="translate(377,257)"/>
<path d="M0 0 C-0.33 0.99 -0.66 1.98 -1 3 C-2.64666203 2.8864371 -4.29236082 2.75882619 -5.9375 2.625 C-6.85402344 2.55539063 -7.77054687 2.48578125 -8.71484375 2.4140625 C-9.84599609 2.20910156 -9.84599609 2.20910156 -11 2 C-11.33 1.34 -11.66 0.68 -12 0 C-10.37585622 -0.19477739 -8.75063577 -0.38059458 -7.125 -0.5625 C-6.22007812 -0.66691406 -5.31515625 -0.77132812 -4.3828125 -0.87890625 C-2 -1 -2 -1 0 0 Z " fill="#B54926" transform="translate(356,206)"/>
<path d="M0 0 C2.70108504 0.090916 5.36930311 0.23740766 8.0625 0.4375 C9.20041992 0.51581055 9.20041992 0.51581055 10.36132812 0.59570312 C12.24121722 0.72575835 14.12065685 0.86228038 16 1 C16 1.33 16 1.66 16 2 C13.91814549 2.22262606 11.83439574 2.42757926 9.75 2.625 C8.58984375 2.74101562 7.4296875 2.85703125 6.234375 2.9765625 C3.06127909 2.99955595 1.61682756 2.69705154 -1 1 C-0.67 0.67 -0.34 0.34 0 0 Z " fill="#D37D5E" transform="translate(226,170)"/>
<path d="M0 0 C0.99 0.33 1.98 0.66 3 1 C0.19195732 3.96404505 -2.18315774 6.44499019 -6 8 C-6.33 6.68 -6.66 5.36 -7 4 C-4.35261084 2.5393715 -3.10551666 2 0 2 C0 1.34 0 0.68 0 0 Z " fill="#BD553D" transform="translate(420,322)"/>
<path d="M0 0 C3.63 1.32 7.26 2.64 11 4 C10.01 4.99 9.02 5.98 8 7 C5.0280615 5.87548273 2.66559313 4.77706209 0 3 C0 2.01 0 1.02 0 0 Z " fill="#CBA498" transform="translate(59,279)"/>
<path d="M0 0 C0.80824219 0.19464844 1.61648437 0.38929688 2.44921875 0.58984375 C3.06410156 0.74582031 3.67898437 0.90179688 4.3125 1.0625 C2.3125 3.0625 2.3125 3.0625 0.4375 3.109375 C-0.26375 3.01140625 -0.965 2.9134375 -1.6875 2.8125 C-2.739375 2.68101562 -2.739375 2.68101562 -3.8125 2.546875 C-5.6875 2.0625 -5.6875 2.0625 -7.6875 0.0625 C-4.39053895 -1.03648702 -3.28255097 -0.80874444 0 0 Z " fill="#D16648" transform="translate(217.6875,280.9375)"/>
<path d="M0 0 C0.33 0.66 0.66 1.32 1 2 C1.66 2 2.32 2 3 2 C3 2.66 3 3.32 3 4 C4.32 4 5.64 4 7 4 C7 4.66 7 5.32 7 6 C3.71303767 6.79953138 2.28976808 7.09658936 -1 6 C-0.67 4.02 -0.34 2.04 0 0 Z " fill="#D53F0B" transform="translate(169,263)"/>
<path d="M0 0 C7.425 0.99 7.425 0.99 15 2 C13 4 13 4 10.9765625 4.046875 C10.20054687 3.94890625 9.42453125 3.8509375 8.625 3.75 C7.85414063 3.66234375 7.08328125 3.5746875 6.2890625 3.484375 C3.9213207 2.98335114 2.10648302 2.17347456 0 1 C0 0.67 0 0.34 0 0 Z " fill="#BA4B32" transform="translate(293,194)"/>
<path d="M0 0 C0 3.55816066 -0.83264416 4.31247876 -3 7 C-3.33 7.66 -3.66 8.32 -4 9 C-4.66 8.67 -5.32 8.34 -6 8 C-6 8.66 -6 9.32 -6 10 C-6.99 9.67 -7.98 9.34 -9 9 C-8.06725891 7.87105124 -7.12859878 6.74699124 -6.1875 5.625 C-5.66542969 4.99851562 -5.14335937 4.37203125 -4.60546875 3.7265625 C-3 2 -3 2 0 0 Z " fill="#C03509" transform="translate(426,314)"/>
<path d="M0 0 C0.99 0.33 1.98 0.66 3 1 C1.6062718 5.43458973 -0.60582235 7.87378374 -4 11 C-4.33 10.01 -4.66 9.02 -5 8 C-4.0409375 7.13375 -4.0409375 7.13375 -3.0625 6.25 C-1.01776132 4.01937599 -0.41794801 2.92563609 0 0 Z " fill="#B95944" transform="translate(427,312)"/>
<path d="M0 0 C2 0 2 0 3.625 1.5 C5.61605945 5.12010808 5.2050035 7.89993009 5 12 C3 11 3 11 2.1484375 8.49609375 C1.89320313 7.48675781 1.63796875 6.47742188 1.375 5.4375 C1.11460937 4.42558594 0.85421875 3.41367187 0.5859375 2.37109375 C0.39257812 1.58863281 0.19921875 0.80617188 0 0 Z " fill="#D8785A" transform="translate(368,288)"/>
<path d="M0 0 C2.91517292 1.07401108 4.77810176 1.77810176 7 4 C6.34 5.32 5.68 6.64 5 8 C2.69 7.34 0.38 6.68 -2 6 C-2 5.67 -2 5.34 -2 5 C-0.02 5 1.96 5 4 5 C4 4.34 4 3.68 4 3 C2.68 3 1.36 3 0 3 C0 2.01 0 1.02 0 0 Z " fill="#CF7860" transform="translate(407,220)"/>
<path d="M0 0 C2.64 0 5.28 0 8 0 C7.01 0.33 6.02 0.66 5 1 C5 1.99 5 2.98 5 4 C5.66 4.33 6.32 4.66 7 5 C1.25 4.125 1.25 4.125 -1 3 C-0.67 2.01 -0.34 1.02 0 0 Z " fill="#C63A0D" transform="translate(260,225)"/>
<path d="M0 0 C1.91789713 0.28346278 3.83429183 0.5771028 5.75 0.875 C7.35101563 1.11863281 7.35101563 1.11863281 8.984375 1.3671875 C11.67708871 1.93223882 13.63572439 2.63422914 16 4 C6.00437637 4.63019694 6.00437637 4.63019694 1.8125 2 C1.214375 1.34 0.61625 0.68 0 0 Z " fill="#D18362" transform="translate(176,315)"/>
<path d="M0 0 C4.92715996 -0.46192125 8.50732625 1.1724717 13 3 C12.67 3.66 12.34 4.32 12 5 C6.06 3.515 6.06 3.515 0 2 C0 1.34 0 0.68 0 0 Z " fill="#BE5A39" transform="translate(141,317)"/>
<path d="M0 0 C2.0622048 -0.054348 4.12482816 -0.09294961 6.1875 -0.125 C7.33605469 -0.14820313 8.48460937 -0.17140625 9.66796875 -0.1953125 C12.91740372 -0.00484152 15.08660521 0.60639873 18 2 C18 2.33 18 2.66 18 3 C15.66705225 3.04241723 13.33297433 3.04092937 11 3 C10.67 2.67 10.34 2.34 10 2 C8.31816052 1.76712992 6.6287584 1.58735834 4.9375 1.4375 C4.01839844 1.35371094 3.09929687 1.26992188 2.15234375 1.18359375 C1.08693359 1.09271484 1.08693359 1.09271484 0 1 C0 0.67 0 0.34 0 0 Z " fill="#BD522D" transform="translate(160,314)"/>
<path d="M0 0 C3.1875 0.875 3.1875 0.875 6 2 C6 2.33 6 2.66 6 3 C7.65 3.33 9.3 3.66 11 4 C10.67 4.66 10.34 5.32 10 6 C5.62297367 4.77443263 1.30322683 3.46939453 -3 2 C-2.01 1.34 -1.02 0.68 0 0 Z " fill="#C4684A" transform="translate(122,309)"/>
<path d="M0 0 C2.03448779 0.41740567 4.05401678 0.90895178 6.0625 1.4375 C7.71958984 1.86869141 7.71958984 1.86869141 9.41015625 2.30859375 C10.26480469 2.53675781 11.11945313 2.76492187 12 3 C12 3.33 12 3.66 12 4 C10.39667209 4.08121924 8.79215974 4.13929134 7.1875 4.1875 C6.29417969 4.22230469 5.40085937 4.25710937 4.48046875 4.29296875 C1.58352485 3.95081002 0.77444972 3.24606427 -1 1 C-0.67 0.67 -0.34 0.34 0 0 Z " fill="#C96744" transform="translate(314,233)"/>
<path d="M0 0 C1.4391134 0.28359887 2.87625518 0.57721399 4.3125 0.875 C5.11300781 1.03742188 5.91351563 1.19984375 6.73828125 1.3671875 C9 2 9 2 12 4 C3.42857143 4.14285714 3.42857143 4.14285714 0 3 C0 2.01 0 1.02 0 0 Z " fill="#CE7959" transform="translate(340,194)"/>
<path d="M0 0 C2.97 1.65 5.94 3.3 9 5 C9 5.66 9 6.32 9 7 C5.7 6.01 2.4 5.02 -1 4 C-0.67 2.68 -0.34 1.36 0 0 Z " fill="#BC8C81" transform="translate(424,229)"/>
<path d="M0 0 C0.66 0 1.32 0 2 0 C3.02611949 1.65071396 4.02308143 3.31970006 5 5 C5.5775 5.515625 6.155 6.03125 6.75 6.5625 C7.1625 7.036875 7.575 7.51125 8 8 C7.578125 10.08984375 7.578125 10.08984375 7 12 C5.82767315 10.3790787 4.6622923 8.75313167 3.5 7.125 C2.8503125 6.22007812 2.200625 5.31515625 1.53125 4.3828125 C0 2 0 2 0 0 Z " fill="#CF8569" transform="translate(65,219)"/>
<path d="M0 0 C3.69900008 0.88776002 7.34550461 1.94581864 11 3 C11 3.99 11 4.98 11 6 C9.5410574 5.52269162 8.08286504 5.04308958 6.625 4.5625 C5.81289062 4.29566406 5.00078125 4.02882813 4.1640625 3.75390625 C2 3 2 3 0 2 C0 1.34 0 0.68 0 0 Z " fill="#C97352" transform="translate(97,300)"/>
<path d="M0 0 C1.00289063 0.28746094 2.00578125 0.57492188 3.0390625 0.87109375 C3.80992187 1.09925781 4.58078125 1.32742187 5.375 1.5625 C5.045 2.2225 4.715 2.8825 4.375 3.5625 C2.9358866 3.27890113 1.49874482 2.98528601 0.0625 2.6875 C-0.73800781 2.52507812 -1.53851563 2.36265625 -2.36328125 2.1953125 C-4.625 1.5625 -4.625 1.5625 -7.625 -0.4375 C-4.72405209 -1.88797396 -3.06527404 -0.89106803 0 0 Z " fill="#C1604B" transform="translate(288.625,235.4375)"/>
<path d="M0 0 C0 0.66 0 1.32 0 2 C-4.61073111 3.29676812 -8.33840089 2.71109139 -13 2 C-13 1.67 -13 1.34 -13 1 C-11.39796533 0.63631108 -9.79325797 0.28438048 -8.1875 -0.0625 C-7.29417969 -0.25972656 -6.40085937 -0.45695313 -5.48046875 -0.66015625 C-3 -1 -3 -1 0 0 Z " fill="#C63A0A" transform="translate(377,210)"/>
<path d="M0 0 C2.8203125 0.4609375 2.8203125 0.4609375 6.125 1.375 C7.22070312 1.67148437 8.31640625 1.96796875 9.4453125 2.2734375 C10.28835937 2.51320313 11.13140625 2.75296875 12 3 C8.59598052 4.13732426 6.22543336 3.83989957 2.75 3.0625 C1.85796875 2.86785156 0.9659375 2.67320312 0.046875 2.47265625 C-0.62859375 2.31667969 -1.3040625 2.16070312 -2 2 C-1.34 1.34 -0.68 0.68 0 0 Z " fill="#C26550" transform="translate(219,337)"/>
<path d="M0 0 C-3.12488567 2.52394612 -6.31314387 4.39701907 -10 6 C-10.66 5.67 -11.32 5.34 -12 5 C-11.67 4.34 -11.34 3.68 -11 3 C-9.68 3 -8.36 3 -7 3 C-7 2.34 -7 1.68 -7 1 C-4.53721199 -0.231394 -2.7204945 -0.07159196 0 0 Z " fill="#BA5F4B" transform="translate(413,330)"/>
<path d="M0 0 C5.4611399 0.35233161 5.4611399 0.35233161 8 1 C9.5 3.0625 9.5 3.0625 10 5 C5.2482602 4.56802365 3.07999946 3.67230705 0 0 Z " fill="#BF542E" transform="translate(348,267)"/>
<path d="M0 0 C4.10899581 1.12795963 8.07561214 2.33510818 12 4 C12 4.33 12 4.66 12 5 C4.63366337 5.49108911 4.63366337 5.49108911 1.5 3.0625 C0 1 0 1 0 0 Z " fill="#C86C51" transform="translate(367,203)"/>
<path d="M0 0 C-2.85306797 2.32472205 -5.54074837 3.7508258 -9 5 C-9.33 4.01 -9.66 3.02 -10 2 C-6.5980513 -0.09350689 -3.94727588 -0.17942163 0 0 Z " fill="#E4A68E" transform="translate(90,185)"/>
<path d="M0 0 C2.97 0.99 5.94 1.98 9 3 C7 4 5 5 3 6 C3 5.34 3 4.68 3 4 C2.34 4 1.68 4 1 4 C0.67 2.68 0.34 1.36 0 0 Z " fill="#D5795C" transform="translate(182,268)"/>
<path d="M0 0 C3.7910119 1.44950455 7.3874638 3.15172566 11 5 C11 5.33 11 5.66 11 6 C9.35 6 7.7 6 6 6 C6 5.34 6 4.68 6 4 C4.35 3.67 2.7 3.34 1 3 C0.67 2.01 0.34 1.02 0 0 Z " fill="#CC7F5D" transform="translate(390,263)"/>
<path d="M0 0 C7.50769231 -0.36923077 7.50769231 -0.36923077 10 1.5 C10.495 2.2425 10.495 2.2425 11 3 C8.83032311 3.95465783 7.43671207 4.14401212 5.17578125 3.3984375 C3.4315257 2.64129615 1.71372869 1.82390802 0 1 C0 0.67 0 0.34 0 0 Z " fill="#C66850" transform="translate(293,239)"/>
<path d="M0 0 C7.75 -0.125 7.75 -0.125 10 1 C10 1.66 10 2.32 10 3 C4.58461538 3.36923077 4.58461538 3.36923077 1.625 1.5 C1.08875 1.005 0.5525 0.51 0 0 Z " fill="#B5431E" transform="translate(268,230)"/>
<path d="M0 0 C0.99 0 1.98 0 3 0 C3.66 1.65 4.32 3.3 5 5 C2.03 4.505 2.03 4.505 -1 4 C-1 1 -1 1 0 0 Z " fill="#B3482D" transform="translate(413,224)"/>
<path d="M0 0 C2.64 0 5.28 0 8 0 C8.33 0.99 8.66 1.98 9 3 C6.03 2.67 3.06 2.34 0 2 C0 1.34 0 0.68 0 0 Z " fill="#D23C0D" transform="translate(384,215)"/>
<path d="M0 0 C3.82097239 0.53069061 6.06171403 1.49701566 9 4 C6.69 4 4.38 4 2 4 C2 3.34 2 2.68 2 2 C1.34 2 0.68 2 0 2 C0 1.34 0 0.68 0 0 Z " fill="#C9754A" transform="translate(170,263)"/>
<path d="M0 0 C1.98 0 3.96 0 6 0 C6.33 0.99 6.66 1.98 7 3 C7.99 3.33 8.98 3.66 10 4 C6.62294375 3.46274105 3.303314 2.88935377 0 2 C0 1.34 0 0.68 0 0 Z " fill="#BF684E" transform="translate(377,215)"/>
<path d="M0 0 C0.66 0.33 1.32 0.66 2 1 C-0.97 5.95 -0.97 5.95 -4 11 C-5.27115705 7.18652885 -4.54905091 5.64026964 -3 2 C-2.01 1.34 -1.02 0.68 0 0 Z " fill="#EE9F82" transform="translate(71,196)"/>
<path d="M0 0 C5.94 1.485 5.94 1.485 12 3 C12 3.33 12 3.66 12 4 C7.01137151 4.29344873 4.03770942 4.05887078 0 1 C0 0.67 0 0.34 0 0 Z " fill="#D68E71" transform="translate(101,295)"/>
<path d="M0 0 C0.79921875 0.11085938 1.5984375 0.22171875 2.421875 0.3359375 C3.32679688 0.47902344 3.32679688 0.47902344 4.25 0.625 C1.0750906 2.5328584 -0.85585211 2.7859041 -4.5 2.25 C-5.29921875 2.13914062 -6.0984375 2.02828125 -6.921875 1.9140625 C-7.52515625 1.81867188 -8.1284375 1.72328125 -8.75 1.625 C-5.5750906 -0.2828584 -3.64414789 -0.5359041 0 0 Z " fill="#C36145" transform="translate(215.75,288.375)"/>
<path d="M0 0 C2.31 0.66 4.62 1.32 7 2 C6.01 3.485 6.01 3.485 5 5 C3.0625 4.1875 3.0625 4.1875 1 3 C0.67 2.01 0.34 1.02 0 0 Z " fill="#C75831" transform="translate(354,247)"/>
<path d="M0 0 C3.71888239 0.50712033 6.73454239 1.11608215 10 3 C6.18510326 4.46726798 3.70988378 3.43336419 0 2 C0 1.34 0 0.68 0 0 Z " fill="#D1805E" transform="translate(329,238)"/>
<path d="M0 0 C-3.26545761 1.88391785 -6.28111761 2.49287967 -10 3 C-10.33 2.34 -10.66 1.68 -11 1 C-7.32589215 -0.17571451 -3.83070817 -0.07366746 0 0 Z " fill="#BA5E3D" transform="translate(398,337)"/>
<path d="M0 0 C1.11375 0.3403125 1.11375 0.3403125 2.25 0.6875 C1.92 1.3475 1.59 2.0075 1.25 2.6875 C-1.39 2.6875 -4.03 2.6875 -6.75 2.6875 C-4.29511132 0.41445492 -3.41240272 -0.38777304 0 0 Z " fill="#D63B06" transform="translate(173.75,322.3125)"/>
<path d="M0 0 C2.92879371 0.62759865 5.36095629 1.58622659 8 3 C8 3.33 8 3.66 8 4 C6.02 4 4.04 4 2 4 C2 3.34 2 2.68 2 2 C1.34 2 0.68 2 0 2 C0 1.34 0 0.68 0 0 Z " fill="#CA6D4F" transform="translate(369,253)"/>
<path d="M0 0 C2.97 1.65 5.94 3.3 9 5 C7.68 5.33 6.36 5.66 5 6 C4.01 5.34 3.02 4.68 2 4 C2 3.34 2 2.68 2 2 C1.34 2 0.68 2 0 2 C0 1.34 0 0.68 0 0 Z " fill="#CB775B" transform="translate(149,250)"/>
<path d="M0 0 C6.15234375 0.5859375 6.15234375 0.5859375 8 1 C8.33 1.66 8.66 2.32 9 3 C7.3125 3.75 7.3125 3.75 5 4 C2.25 2.0625 2.25 2.0625 0 0 Z " fill="#C96E4C" transform="translate(93,246)"/>
<path d="M0 0 C2.97 0.99 5.94 1.98 9 3 C8.01 3.66 7.02 4.32 6 5 C4.02 4.01 2.04 3.02 0 2 C0 1.34 0 0.68 0 0 Z " fill="#CA714F" transform="translate(382,209)"/>
<path d="M0 0 C0.6875 1.75 0.6875 1.75 1 4 C-0.4375 6.25 -0.4375 6.25 -2 8 C-2.99 7.67 -3.98 7.34 -5 7 C-4.360625 6.21625 -3.72125 5.4325 -3.0625 4.625 C-1.01857687 2.20460719 -1.01857687 2.20460719 0 0 Z " fill="#C5471B" transform="translate(371,304)"/>
<path d="M0 0 C2.31 0.66 4.62 1.32 7 2 C6.67 2.99 6.34 3.98 6 5 C4.02 4.34 2.04 3.68 0 3 C0 2.01 0 1.02 0 0 Z " fill="#CA6547" transform="translate(109,253)"/>
<path d="M0 0 C3.65316671 1.24976756 4.78065836 1.67098753 7 5 C4.625 4.75 4.625 4.75 2 4 C0.6875 1.9375 0.6875 1.9375 0 0 Z " fill="#C66B55" transform="translate(140,244)"/>
</svg>
